<?xml version="1.0" encoding="UTF-8"?>
<svg id="Layer_1" data-name="Layer 1" xmlns="http://www.w3.org/2000/svg" viewBox="0 0 1389.04 1150.32">
  <defs>
    <style>
      .cls-1 {
        fill: none;
        stroke: #186fb3;
        stroke-miterlimit: 10;
        stroke-width: 3px;
      }

      .cls-2 {
        fill: #00aeef;
      }

      .cls-2, .cls-3, .cls-4, .cls-5, .cls-6, .cls-7, .cls-8 {
        stroke-width: 0px;
      }

      .cls-9 {
        opacity: .99;
      }

      .cls-3 {
        fill: #1f2b5b;
      }

      .cls-4, .cls-10 {
        fill: #fff;
      }

      .cls-10 {
        font-family: MyriadPro-Regular, 'Myriad Pro';
        font-size: 340px;
      }

      .cls-5 {
        fill: #293c8e;
      }

      .cls-6 {
        fill: #ee2c33;
      }

      .cls-7 {
        fill: #176db3;
      }

      .cls-11 {
        letter-spacing: -.01em;
      }

      .cls-12 {
        letter-spacing: .01em;
      }

      .cls-8 {
        fill: #166fb1;
      }
    </style>
  </defs>
  <text class="cls-10" transform="translate(.8 1127.64)"><tspan class="cls-11" x="0" y="0">C</tspan><tspan x="193.46" y="0">onstru</tspan><tspan class="cls-12" x="1114.51" y="0">c</tspan><tspan x="1271.24" y="0">t</tspan></text>
  <g>
    <circle class="cls-4" cx="689.93" cy="449.96" r="419.4"/>
    <g class="cls-9">
      <g>
        <g>
          <path class="cls-2" d="m565.16,57.19s-164.89,59.98-238.23,199.29c0,0-133.46,240.78,52.94,462.47,0,0-55.7-448.34,250.37-628.67l-65.07-33.09Z"/>
          <path class="cls-3" d="m414.06,677.05s128.35,50.53,236.3,47.43c0,0,192.74,27.3,434.28-169.58,0,0-55.42,265.53-355.7,304.41,0,0-177.85,18.6-310.2-100.3l-4.69-81.96Z"/>
        </g>
        <path class="cls-8" d="m608.18,47.27s168.2,57.35,283.46,193.01c0,0,110.71,111.95,140.07,322.89l63.69-51.29s32.81-187.22-94.58-329.5c0,0-156.07-181.98-392.65-135.11Z"/>
      </g>
      <g>
        <polygon class="cls-5" points="639.33 382.01 643.54 382.01 614.38 359.88 654.09 359.88 654.09 352.23 601.15 352.23 639.33 382.01"/>
        <polygon class="cls-7" points="460.11 352.23 460.11 382.01 542 382.01 541.72 576.4 573.99 576.4 573.99 382.56 639.33 382.01 606.25 355.82 651.74 356.64 651.74 352.23 460.11 352.23"/>
        <polygon class="cls-6" points="630.23 363.4 656.98 363.4 664.43 338.17 673.53 363.4 697.93 363.4 678.9 379.11 686.42 403.52 665.67 388.08 645.4 403.52 651.74 378.7 630.23 363.4"/>
      </g>
      <g>
        <path class="cls-1" d="m702.02,373.22s100.35,69.93,137.24,116.29"/>
        <path class="cls-1" d="m695.86,393.94s121.64,71.74,156.21,121.53"/>
      </g>
      <polygon class="cls-7" points="690.07 575.37 753.35 447.36 775.68 466.23 719.85 575.37 690.07 575.37"/>
      <polygon class="cls-7" points="800.5 414.68 792.23 431.23 771.96 408.89 800.5 352.23 911.35 576.4 880.33 576.4 800.5 414.68"/>
    </g>
  </g>
</svg>