<?xml version="1.0" encoding="UTF-8"?>
<svg id="Layer_1" data-name="Layer 1" xmlns="http://www.w3.org/2000/svg" viewBox="0 0 846.44 1131.26">
  <defs>
    <style>
      .cls-1 {
        fill: none;
        stroke: #186fb3;
        stroke-miterlimit: 10;
        stroke-width: 3px;
      }

      .cls-2 {
        fill: #00aeef;
      }

      .cls-2, .cls-3, .cls-4, .cls-5, .cls-6, .cls-7, .cls-8 {
        stroke-width: 0px;
      }

      .cls-9 {
        opacity: .99;
      }

      .cls-3 {
        fill: #1f2b5b;
      }

      .cls-4, .cls-10 {
        fill: #fff;
      }

      .cls-5 {
        fill: #293c8e;
      }

      .cls-6 {
        fill: #ee2c33;
      }

      .cls-11 {
        letter-spacing: 0em;
      }

      .cls-7 {
        fill: #176db3;
      }

      .cls-10 {
        font-family: MyriadPro-Regular, 'Myriad Pro';
        font-size: 300px;
      }

      .cls-8 {
        fill: #166fb1;
      }
    </style>
  </defs>
  <text class="cls-10" transform="translate(18.67 1061.99)"><tspan x="0" y="0">G</tspan><tspan class="cls-11" x="193.8" y="0">r</tspan><tspan x="288.9" y="0">oup</tspan></text>
  <g>
    <circle class="cls-4" cx="424.28" cy="422.36" r="419.4"/>
    <g class="cls-9">
      <g>
        <g>
          <path class="cls-2" d="m299.51,29.6S134.62,89.58,61.28,228.89c0,0-133.46,240.78,52.94,462.47,0,0-55.7-448.34,250.37-628.67l-65.07-33.09Z"/>
          <path class="cls-3" d="m148.41,649.45s128.35,50.53,236.3,47.43c0,0,192.74,27.3,434.28-169.58,0,0-55.42,265.53-355.7,304.41,0,0-177.85,18.6-310.2-100.3l-4.69-81.96Z"/>
        </g>
        <path class="cls-8" d="m342.53,19.67s168.2,57.35,283.46,193.01c0,0,110.71,111.95,140.07,322.89l63.69-51.29s32.81-187.22-94.58-329.5c0,0-156.07-181.98-392.65-135.11Z"/>
      </g>
      <g>
        <polygon class="cls-5" points="373.68 354.41 377.89 354.41 348.73 332.29 388.44 332.29 388.44 324.63 335.49 324.63 373.68 354.41"/>
        <polygon class="cls-7" points="194.46 324.63 194.46 354.41 276.35 354.41 276.07 548.81 308.33 548.81 308.33 354.97 373.68 354.41 340.6 328.22 386.09 329.05 386.09 324.63 194.46 324.63"/>
        <polygon class="cls-6" points="364.58 335.8 391.33 335.8 398.78 310.57 407.88 335.8 432.28 335.8 413.25 351.52 420.77 375.92 400.02 360.48 379.75 375.92 386.09 351.11 364.58 335.8"/>
      </g>
      <g>
        <path class="cls-1" d="m436.37,345.62s100.35,69.93,137.24,116.29"/>
        <path class="cls-1" d="m430.21,366.34s121.64,71.74,156.21,121.53"/>
      </g>
      <polygon class="cls-7" points="424.42 547.77 487.7 419.76 510.03 438.64 454.2 547.77 424.42 547.77"/>
      <polygon class="cls-7" points="534.85 387.09 526.58 403.63 506.31 381.3 534.85 324.63 645.7 548.81 614.68 548.81 534.85 387.09"/>
    </g>
  </g>
</svg>