<?xml version="1.0" encoding="UTF-8"?>
<svg id="Layer_1" data-name="Layer 1" xmlns="http://www.w3.org/2000/svg" viewBox="0 0 1837.78 500">
  <defs>
    <style>
      .cls-1 {
        fill: #166daf;
      }

      .cls-1, .cls-2 {
        font-family: MyriadPro-Regular, 'Myriad Pro';
        font-size: 340px;
      }

      .cls-3 {
        fill: none;
        stroke: #186fb3;
        stroke-miterlimit: 10;
        stroke-width: 3px;
      }

      .cls-4 {
        fill: #00aeef;
      }

      .cls-4, .cls-5, .cls-6, .cls-7, .cls-8, .cls-9, .cls-10 {
        stroke-width: 0px;
      }

      .cls-11 {
        letter-spacing: 0em;
      }

      .cls-12 {
        opacity: .99;
      }

      .cls-13 {
        letter-spacing: 0em;
      }

      .cls-5 {
        fill: #1f2b5b;
      }

      .cls-6, .cls-2 {
        fill: #fff;
      }

      .cls-7 {
        fill: #293c8e;
      }

      .cls-8 {
        fill: #ee2c33;
      }

      .cls-9 {
        fill: #176db3;
      }

      .cls-14 {
        letter-spacing: .01em;
      }

      .cls-15 {
        letter-spacing: 0em;
      }

      .cls-10 {
        fill: #166fb1;
      }

      .cls-16 {
        letter-spacing: 0em;
      }
    </style>
  </defs>
  <g>
    <text class="cls-1" transform="translate(541.27 360.41)"><tspan class="cls-11" x="0" y="0">S</tspan><tspan x="169.66" y="0">o</tspan><tspan class="cls-14" x="356.32" y="0">f</tspan><tspan class="cls-16" x="459.33" y="0">t</tspan><tspan class="cls-15" x="574.92" y="0">w</tspan><tspan x="823.8" y="0">a</tspan><tspan class="cls-13" x="987.68" y="0">r</tspan><tspan x="1095.46" y="0">e</tspan></text>
    <text class="cls-2" transform="translate(541.27 360.41)"><tspan class="cls-11" x="0" y="0">S</tspan><tspan x="169.66" y="0">o</tspan><tspan class="cls-14" x="356.32" y="0">f</tspan><tspan class="cls-16" x="459.33" y="0">t</tspan><tspan class="cls-15" x="574.92" y="0">w</tspan><tspan x="823.8" y="0">a</tspan><tspan class="cls-13" x="987.68" y="0">r</tspan><tspan x="1095.46" y="0">e</tspan></text>
  </g>
  <g>
    <circle class="cls-6" cx="252.87" cy="251.44" r="245.15"/>
    <g class="cls-12">
      <g>
        <g>
          <path class="cls-4" d="m180.59,23.92S85.08,58.66,42.59,139.37c0,0-77.31,139.48,30.67,267.9,0,0-32.27-259.72,145.03-364.18l-37.7-19.17Z"/>
          <path class="cls-5" d="m93.06,382.99s74.35,29.27,136.89,27.47c0,0,111.65,15.81,251.57-98.23,0,0-32.11,153.82-206.05,176.34,0,0-103.02,10.78-179.69-58.1l-2.72-47.48Z"/>
        </g>
        <path class="cls-10" d="m205.51,18.17s97.43,33.22,164.2,111.81c0,0,64.13,64.85,81.14,187.04l36.9-29.71s19.01-108.46-54.79-190.88c0,0-90.41-105.42-227.45-78.27Z"/>
      </g>
      <g>
        <polygon class="cls-7" points="223.56 212.08 226 212.08 209.11 199.26 232.11 199.26 232.11 194.83 201.44 194.83 223.56 212.08"/>
        <polygon class="cls-9" points="119.74 194.83 119.74 212.08 167.18 212.08 167.02 324.69 185.71 324.69 185.71 212.4 223.56 212.08 204.39 196.91 230.75 197.38 230.75 194.83 119.74 194.83"/>
        <polygon class="cls-8" points="218.29 201.3 233.78 201.3 238.1 186.68 243.37 201.3 257.5 201.3 246.48 210.4 250.83 224.54 238.82 215.59 227.08 224.54 230.75 210.16 218.29 201.3"/>
      </g>
      <g>
        <path class="cls-3" d="m259.87,206.99s58.13,40.51,79.5,67.36"/>
        <path class="cls-3" d="m256.31,218.99s70.46,41.56,90.49,70.4"/>
      </g>
      <polygon class="cls-9" points="252.95 324.09 289.61 249.94 302.55 260.87 270.2 324.09 252.95 324.09"/>
      <polygon class="cls-9" points="316.92 231.01 312.13 240.59 300.39 227.65 316.92 194.83 381.13 324.69 363.16 324.69 316.92 231.01"/>
    </g>
  </g>
</svg>