<?xml version="1.0" encoding="UTF-8"?>
<svg id="Layer_1" data-name="Layer 1" xmlns="http://www.w3.org/2000/svg" viewBox="0 0 1389.04 1102.22">
  <defs>
    <style>
      .cls-1 {
        fill: #166daf;
        font-family: MyriadPro-Regular, 'Myriad Pro';
        font-size: 340px;
      }

      .cls-2 {
        fill: none;
        stroke: #186fb3;
        stroke-miterlimit: 10;
        stroke-width: 3px;
      }

      .cls-3 {
        fill: #00aeef;
      }

      .cls-3, .cls-4, .cls-5, .cls-6, .cls-7, .cls-8 {
        stroke-width: 0px;
      }

      .cls-9 {
        opacity: .99;
      }

      .cls-4 {
        fill: #1f2b5b;
      }

      .cls-5 {
        fill: #293c8e;
      }

      .cls-6 {
        fill: #ee2c33;
      }

      .cls-7 {
        fill: #176db3;
      }

      .cls-10 {
        letter-spacing: -.01em;
      }

      .cls-11 {
        letter-spacing: .01em;
      }

      .cls-8 {
        fill: #166fb1;
      }
    </style>
  </defs>
  <text class="cls-1" transform="translate(-1.29 1076.68)"><tspan class="cls-10" x="0" y="0">C</tspan><tspan x="193.46" y="0">onstru</tspan><tspan class="cls-11" x="1114.51" y="0">c</tspan><tspan x="1271.24" y="0">t</tspan></text>
  <g class="cls-9">
    <g>
      <g>
        <path class="cls-3" d="m573.07,28.41s-164.89,59.98-238.23,199.29c0,0-133.46,240.78,52.94,462.47,0,0-55.7-448.34,250.37-628.67l-65.07-33.09Z"/>
        <path class="cls-4" d="m421.97,648.26s128.35,50.53,236.3,47.43c0,0,192.74,27.3,434.28-169.58,0,0-55.42,265.53-355.7,304.41,0,0-177.85,18.6-310.2-100.3l-4.69-81.96Z"/>
      </g>
      <path class="cls-8" d="m616.08,18.49s168.2,57.35,283.46,193.01c0,0,110.71,111.95,140.07,322.89l63.69-51.29s32.81-187.22-94.58-329.5c0,0-156.07-181.98-392.65-135.11Z"/>
    </g>
    <g>
      <polygon class="cls-5" points="647.24 353.23 651.45 353.23 622.29 331.1 661.99 331.1 661.99 323.45 609.05 323.45 647.24 353.23"/>
      <polygon class="cls-7" points="468.01 323.45 468.01 353.23 549.91 353.23 549.63 547.62 581.89 547.62 581.89 353.78 647.24 353.23 614.15 327.03 659.65 327.86 659.65 323.45 468.01 323.45"/>
      <polygon class="cls-6" points="638.14 334.61 664.89 334.61 672.33 309.39 681.43 334.61 705.84 334.61 686.81 350.33 694.32 374.73 673.57 359.29 653.31 374.73 659.65 349.92 638.14 334.61"/>
    </g>
    <g>
      <path class="cls-2" d="m709.93,344.44s100.35,69.93,137.24,116.29"/>
      <path class="cls-2" d="m703.77,365.15s121.64,71.74,156.21,121.53"/>
    </g>
    <polygon class="cls-7" points="697.98 546.59 761.26 418.58 783.59 437.45 727.76 546.59 697.98 546.59"/>
    <polygon class="cls-7" points="808.41 385.9 800.14 402.45 779.87 380.11 808.41 323.45 919.25 547.62 888.23 547.62 808.41 385.9"/>
  </g>
</svg>