<?xml version="1.0" encoding="UTF-8"?>
<svg id="Layer_1" data-name="Layer 1" xmlns="http://www.w3.org/2000/svg" viewBox="0 0 846.44 1131.26">
  <defs>
    <style>
      .cls-1 {
        fill: none;
        stroke: #186fb3;
        stroke-miterlimit: 10;
        stroke-width: 3px;
      }

      .cls-2 {
        fill: #00aeef;
      }

      .cls-2, .cls-3, .cls-4, .cls-5, .cls-6, .cls-7 {
        stroke-width: 0px;
      }

      .cls-8 {
        fill: #166daf;
        font-family: MyriadPro-Regular, 'Myriad Pro';
        font-size: 300px;
      }

      .cls-9 {
        opacity: .99;
      }

      .cls-3 {
        fill: #1f2b5b;
      }

      .cls-4 {
        fill: #293c8e;
      }

      .cls-5 {
        fill: #ee2c33;
      }

      .cls-10 {
        letter-spacing: 0em;
      }

      .cls-6 {
        fill: #176db3;
      }

      .cls-7 {
        fill: #166fb1;
      }
    </style>
  </defs>
  <text class="cls-8" transform="translate(23.49 1061.99)"><tspan x="0" y="0">G</tspan><tspan class="cls-10" x="193.8" y="0">r</tspan><tspan x="288.9" y="0">oup</tspan></text>
  <g class="cls-9">
    <g>
      <g>
        <path class="cls-2" d="m295.4,27.23S130.51,87.21,57.16,226.52c0,0-133.46,240.78,52.94,462.47,0,0-55.7-448.34,250.37-628.67l-65.07-33.09Z"/>
        <path class="cls-3" d="m144.29,647.08s128.35,50.53,236.3,47.43c0,0,192.74,27.3,434.28-169.58,0,0-55.42,265.53-355.7,304.41,0,0-177.85,18.6-310.2-100.3l-4.69-81.96Z"/>
      </g>
      <path class="cls-7" d="m338.41,17.3s168.2,57.35,283.46,193.01c0,0,110.71,111.95,140.07,322.89l63.69-51.29s32.81-187.22-94.58-329.5c0,0-156.07-181.98-392.65-135.11Z"/>
    </g>
    <g>
      <polygon class="cls-4" points="369.57 352.04 373.77 352.04 344.62 329.91 384.32 329.91 384.32 322.26 331.38 322.26 369.57 352.04"/>
      <polygon class="cls-6" points="190.34 322.26 190.34 352.04 272.24 352.04 271.96 546.43 304.22 546.43 304.22 352.59 369.57 352.04 336.48 325.85 381.98 326.67 381.98 322.26 190.34 322.26"/>
      <polygon class="cls-5" points="360.47 333.43 387.22 333.43 394.66 308.2 403.76 333.43 428.16 333.43 409.14 349.15 416.65 373.55 395.9 358.11 375.64 373.55 381.98 348.73 360.47 333.43"/>
    </g>
    <g>
      <path class="cls-1" d="m432.25,343.25s100.35,69.93,137.24,116.29"/>
      <path class="cls-1" d="m426.1,363.97s121.64,71.74,156.21,121.53"/>
    </g>
    <polygon class="cls-6" points="420.3 545.4 483.59 417.39 505.92 436.26 450.08 545.4 420.3 545.4"/>
    <polygon class="cls-6" points="530.74 384.72 522.46 401.26 502.2 378.93 530.74 322.26 641.58 546.43 610.56 546.43 530.74 384.72"/>
  </g>
</svg>