<?xml version="1.0" encoding="UTF-8"?>
<svg id="Layer_1" data-name="Layer 1" xmlns="http://www.w3.org/2000/svg" viewBox="0 0 1440.48 500">
  <defs>
    <style>
      .cls-1 {
        fill: #166daf;
        font-family: MyriadPro-Regular, 'Myriad Pro';
        font-size: 340px;
      }

      .cls-2 {
        fill: none;
        stroke: #186fb3;
        stroke-miterlimit: 10;
        stroke-width: 3px;
      }

      .cls-3 {
        fill: #00aeef;
      }

      .cls-3, .cls-4, .cls-5, .cls-6, .cls-7, .cls-8 {
        stroke-width: 0px;
      }

      .cls-9 {
        opacity: .99;
      }

      .cls-10 {
        letter-spacing: 0em;
      }

      .cls-4 {
        fill: #1f2b5b;
      }

      .cls-5 {
        fill: #293c8e;
      }

      .cls-6 {
        fill: #ee2c33;
      }

      .cls-7 {
        fill: #176db3;
      }

      .cls-8 {
        fill: #166fb1;
      }
    </style>
  </defs>
  <g class="cls-9">
    <g>
      <g>
        <path class="cls-3" d="m176.52,17.94S79.4,53.27,36.2,135.32c0,0-78.6,141.81,31.18,272.38,0,0-32.81-264.06,147.46-370.27l-38.33-19.49Z"/>
        <path class="cls-4" d="m87.52,383.02s75.6,29.76,139.18,27.93c0,0,113.52,16.08,255.78-99.88,0,0-32.64,156.39-209.5,179.29,0,0-104.75,10.96-182.7-59.08l-2.76-48.27Z"/>
      </g>
      <path class="cls-8" d="m201.85,12.1s99.06,33.78,166.95,113.68c0,0,65.2,65.93,82.5,190.17l37.51-30.21s19.33-110.27-55.7-194.07c0,0-91.92-107.18-231.26-79.58Z"/>
    </g>
    <g>
      <polygon class="cls-5" points="220.2 209.25 222.68 209.25 205.51 196.22 228.89 196.22 228.89 191.71 197.71 191.71 220.2 209.25"/>
      <polygon class="cls-7" points="114.64 191.71 114.64 209.25 162.88 209.25 162.71 323.74 181.71 323.74 181.71 209.58 220.2 209.25 200.71 193.82 227.51 194.31 227.51 191.71 114.64 191.71"/>
      <polygon class="cls-6" points="214.84 198.29 230.6 198.29 234.98 183.43 240.34 198.29 254.71 198.29 243.51 207.55 247.93 221.92 235.71 212.82 223.78 221.92 227.51 207.3 214.84 198.29"/>
    </g>
    <g>
      <path class="cls-2" d="m257.12,204.07s59.1,41.19,80.83,68.49"/>
      <path class="cls-2" d="m253.5,216.27s71.64,42.25,92,71.58"/>
    </g>
    <polygon class="cls-7" points="250.08 323.13 287.36 247.74 300.51 258.86 267.62 323.13 250.08 323.13"/>
    <polygon class="cls-7" points="315.13 228.5 310.25 238.24 298.32 225.08 315.13 191.71 380.41 323.74 362.14 323.74 315.13 228.5"/>
  </g>
  <text class="cls-1" transform="translate(541.27 360.41)"><tspan x="0" y="0">G</tspan><tspan class="cls-10" x="219.64" y="0">r</tspan><tspan x="327.42" y="0">oup</tspan></text>
</svg>